<mxfile host="Electron" agent="Mozilla/5.0 (Windows NT 10.0; Win64; x64) AppleWebKit/537.36 (KHTML, like Gecko) draw.io/24.7.5 Chrome/126.0.6478.183 Electron/31.3.0 Safari/537.36" version="24.7.5">
  <diagram id="7ohDsHdsWYY5jcorP2mP" name="Page-1">
    <mxGraphModel dx="1674" dy="970" grid="0" gridSize="10" guides="1" tooltips="1" connect="1" arrows="1" fold="1" page="1" pageScale="1" pageWidth="3000" pageHeight="1920" background="none" math="0" shadow="0">
      <root>
        <mxCell id="0" />
        <mxCell id="m1atIyZ4gX1CUayxEhNT-13" value="Bitmaps" parent="0" />
        <mxCell id="xqy69tr8KV9q_1hySrRs-1" value="" style="shape=image;verticalLabelPosition=bottom;labelBackgroundColor=default;verticalAlign=top;aspect=fixed;imageAspect=0;image=data:image/png,iVBORw0KGgoAAAANSUhEUgAAAOMAAAErCAIAAACjIKN2AAAf00lEQVR4Ae2db3Abx3XA73PbWGkbT/MVcppvaWbalIkTTz9UzCd/78cOG4OOnXbUaeMmciyS+EOJHqthZhhbnqYjQU0U2TGdSJZIUSbt2JWTWh7TCgNyFFo2h9afUKIMUhBAxAo1tJrdd/t2b+8P7oADcQu8Gwyx9/btv7e/e7t3uF1aly9ffvbZZy9durS8vLy4uPjWW2+9/vrrp0+fPiWOkZGRk/7H/v37/SNP7t+//4T/sW/fPv/IE8Gxw8PDx/0PilVto1lDs3mwncPHvuQ8Tp5kvR/MBsaeOnXqmR8eP8g//3Vs8tCLr/zw1C//bvqiZVkHDx58lh/W5cuXP/jgg+Xl5dnZ2ampqfn54gcfLK+VStVqxfTPRrXS3OfWRhU+fvmggmGBWvVWjTWtHPCpVcugJv7qylyhXP9vpVzTPixn38+ND1cX33v/l2/P/cPRM/fee+8z/Dh48KAFmP7iF7849+abN1ZXzaWzOSgDWAyIMgxQceExTPlHh08F1xMmVPCM9RZqmFZ8GdWSL1279uijjxw4cODpp59+5plnLPCmb775f+YyWm3Wd7pZvFWPe1MYBRb12gpSb9X83arGTeOnjZIKJT537Njo6Cgj9Te/+c3U1NSNG+RNkVfsV5RoAVRIeEB1mY6qKqT6OtfG0dRGdjepKNE0vU5/e/XSU089NTY2Zp07d25+vkgOVThR7FGNTjxFheQHGic1NkyrrkkqYhp6GvDzV2e++93vWq+99toHy8uGkirwQoxiCQQM/cmnU6uhJ6y2UMMR56AbXr5NU452qtKphsMVNF+cO3DggDU5OWnonX7cmAYACheABkGiTgE+d5VUUj3C0YALB5Z3niqgGA6X4er13z755JPWyZMnTXSosWKqdrCfV1Z1khZWEXTUDeajqrPUwt5UhQMocloEFAOhC9q/fz+R6uhanwtA00naaTCpaqwejkybxlbouaZdEDIKAS03/1NG6ksvvZRMnwrQuOvmA5OfLwyWa8x5Kms6STvV4RMPTZkcQdRcKZ6iQoOBKKSmdu6cOj3h+BWA13Dq9MTO++4LrkCcpJbLN4EqJKlaraRSKfeDBVTY8P8ZzE9HlUcNW5bFk7hR0wC91du7y+JHKpUSHe9O1XaJm1EmmZk+A5XfqJaxIZZlHSkcQkAhEAwHxkJaPHUEopA6dXriLz79aQarcgnZwsmJWuVmrXpTjVLDdUi9fOXKy6++7vZqbkmlcusHh//H/QS+LqmesLoR1K4Bt0IYCSfVEy+V1FupVCqfzwKgM9NnjhQObw+s/OdNz+pJod+8U5XPTJ/p7d0FLPb27pqZPlOrlhfm5yzLWpifU7t/+8MarALTUwxT/CgcYw0ZqSdOnHCTB5LxlyZPTZ3xi1XlV69e2ZN9MgypbqTUfCDsp+OWR5KEITWfzyKm2wMoliJok1xiFAaEju5NoUeBTiS1xn0qkFqrlvvTDx0pHMK+rx+IOJV0ZggO0sNNIqzemNqeVU3Owvv27Qsi9fv/fXTm1Z+7SXJLzr117l+/M6yRqo7+vb27CoXDMCql02kg7IgiAe+7Ua1YlpXP5yzLmp8vwimkmp5+eaNamZl+GU75uMx8YTqdBokY3FUHWcEi8vkskorjo5BgEuZQ5+d/jWRgIJVKQSncXTGYwPValjUzfSadfkipw618PptOPwRp5+d/DaXgQIwzit7eXVg91HcXhJnn81kgVfsJVEUERn/wqW5SZ6bPLMzP7Uyl+nmF0ddC5Rfm54bz2f70Q5DhQpG54Vq1vDOViuiMdc7UGtaqZWDUngmgK8UAmwPonzqkPnfs8Knjz7u5dEteOFYo/LAAcqAQwjj69/buQraAwvn5IgSq1QpAjGjm8znIBJMD9Bti4ouuNJ/P8V5hqB0pHMYiQAGw5mFGDxAzP/9rZAUgQxyBP/XUHYbxFDQRL1RDlyyuAVau5qTTzLexGYWwCeOem8JxhUBB6CC5v8Q3S+Tv9RoENT5P7e3dBXIc/eHiRDTRuQKLIIdUKBnOZYdz2eik6pC5Z5/xkzo5cXzw27vxVskNKEjef29x9yP/+PIZj+eyiBo3GXOKG9VKb++u6emXC4XD6XQa8wRNcKKgBiijrwKswYOCAmQ1w30tSDATOM3ncxx6ezwFetCNQc5ILdDGc3AQA3I11cz0GSAVvS84TsgQuEQcMUPVkSOpfGhm1cMLwFVQ2bIsfknAvbyEFfyiZVnoBYFOgBtJRQOCXwSfipoYCwF1ksBcaXGuVuE+tRhyguuJqeM+qc7o7/Km4F/r+NRz59547D/+7fHHv5XLZXu/+tUvf+UrX/rSl7/4xS997nN/9ZnP/OVnP/vZL3zhb0dG9n3j0YcP/OdTV65cRuwwAOhUOZ2IFJKaz+c0TY3UVCqFCurUwrIscJ/qBQAeFyHeqFby+Zx6P4SkCl8Ig77NMRCZTj+kucCN6q0jhcM46CNSiCCO7xtV6UEBF/TZM9Nn8JJAiCEruJGCMBZUk+wyQI8UDvFJEfNwYgJgv1kCzKl/NVJxngo6GqnofTEHrDm7APhU1UbW60YHU4mAH6m2fOr0KT7onwL+7NNJ5Y6qMVKr1cqJEy9ks0/89d/03PPJe+/Z8ak/+cSffmLHn//RH9/DAvf82T2f/NTXHvnGMz848v7776tIYTiA1Gk+4wT+wJHg6I8PBFKpVKFwWGUUQYSctdEfZwKgJuYDjEV19HcPtTh8A3bIN9z7H2Hun807IVbzqep0Qn1ukEqlEGvofiiFP/SxR3/NpyoFsTkiL8i+eRI5gGeVD0oFIlISntRalTlsDWUY7u2rSCEVnh7wecKv+Azh5sz01M5UylmBIFI1TBmslZtTk5xdhLVhUqvVyvp66fDhQv/Dj379kW+kH34k/fDX+77W/09f638o/fWBoczaWtDqADep4F+np1+ucp8Hg046nQZN8KkIujoBAArxhgPnsnhHBV4WUUYfCUUgqeAjcdRze1CYNYICulI4VeHjFbbnCXi3pLrkfD6LfhRmC5CJ26cqHpRNWGHEAFbUOcP8/Bzc3auP9J2gMF4jkarmj7OI4XxWRRDuqASpNxfmGyF1o7K+8777pk7b3hQwhSdTU5OnUqmd9lOqZkhFbmIPKFSxW350pWpBqk6UsGNMR5cpcvCL3W65cyhnAzqyiAFgEU8h4AYUJSqpKIwp4OkypTuHMd3v70ZlXUbhnb4WSDip6XQaXKbKKIQFW/ggKUwgADiPuanCcUDCpqLEc1A9Exep9livcgmQqZK6PhUcc0x0IoiemDYq1ADF06SRCvyBQfH2SPOpDTFa2QbsYi3CY96pQqnS5idXdVoZbhRKT/gQTS3gqVz3yb/bw0WVIG1qQhS6A6jmjgon0Z1WrFTFnrn0oBphAKUmbPcpJ1UFS6MKojSh36majxr20a/zlAq5aSygsQWZaELtNIyOlkQ59SMpiSO+6iCDR/N2A6qM/ipS2s+eapQPbXKSyu/65Q/9mNY/YQtJVQCyZ5ZhKAyj486ZS/wwxTf5AxRaEhU4N5XeFJGNjUi/3+ujvPckKuMc8REpCKhgqVGq3C+s6mPYTxlG/+PHjwMfMf51w4SZu6NikrSEttZMHjwwjXO49yM11KN78KDqm00KrIgUBFSwAqJUNQxr+niKCs7A8PCwFTupbvIQU89n+G79hiSmkOqLaWzOFUhtxIOKgR65gYAKjRrlJ3enUjX9hn7MWVPmp/GTqkGmMophTx1NGP1UI7U9c9MNexcdrTL2j/XIIgZgkMVTCIiRV3ATwReKJAhrY/4VoXEzp0apSKlyDKsKGMbY4ADq80AbSHUjCAS75VEkOhkirVveconnC9F8zqp7U5VIFVZV3mA4MqnKEO/2eSo0Kl5+ctRRFTCMscEB1OeB1pKKThQDAiD7Hium05bDF8dsVcdUu99HUhtEswG/y5I0MR91kuTIChF066gloppfQEluk1qmgyyQbAsQqcnuH6qdsACRKixB38m2AJGa7P6h2gkLEKnCEvSdbAsQqcnuH6qdsACRKixB38m2AJGa7P6h2gkLMFJ/9rOfiVP6Jgsk1AJEakI7hqqlWYBI1QxCpwm1AJGa0I6hamkWIFI1g9BpQi1ApCa0Y6hamgWIVM0gdJpQCzBSf/rTnya0dlQtsoCwQD6fJ1KFMeg7wRYgUhPcOVQ1xQJEqmIMCibYAkRqgjuHqqZYgEhVjEHBBFuASI3cOb///e/X19dLdMRngevXr1cqleCeIFKD7eMRu76+vrm5+TEd8VmgWq1eu3bNw9aKiEhVjBEuWCqVPv7447t0xGeBjz76aGVlJdj8RGqwfTxiidT4ELVzIlI9OGteRKQSqc1TtB05EKlEqpuz8yM94l8B9Iycd8e3Q0Kkto3UF198sR09Xq9MTmnfuFA7PzKCYSFryzeRejfuI8w8NZfLWYkklXEqMW0Lkj6FEqlxg3rXZFL9QR3vE/MBG+TxPqunr6/H4mA7Y525MEU2hXDqlLmgZ2TEzhdnGS41m1wilUhVnNj5kR5ERhErQcEdB8+lK2LH+9AzK0HIRugAusA9w1Nz5ahmF06k3o376EyfqrhE4NNJkvSEGCsYRJw9dNQ4EdbViNS4CRX5mUxq2Tlw25CUFTF6XYVUmQhjWYqekfOOc9trokzJgV0HnFSvrKAW5FMFYLF9G02qPZ2UIzHc+wuQOLLg/FBkTzjZwyzGmXCNDMi+vh6RE6pLHRSJOStMZiEDqWZfLkRqbISKjAwn1QZO3D/Z4DFw2MHgc5HKCXXGilwEqECxU8eLVO+sGKxEqgAstm/zSWVgJO4gUu/GfRCpZe5+HX+aB59IjRtUo5+nNg9Uy3IgUonUlsEVa8Zra2tLS0vxvUZMOX28tLR0/fr14F5K7K+pwdVuZ+zt27fHxsbydMRngbGxsdu3bwd3KiN1fDwZr34E15Riu9sCRGp39785rSdSzemr7q4pkdrd/W9O64lUc/qqu2tKpEbu/5WVlYWFhSId8VlgYWGh7ipqRuoLL7wQubu6OMHCwkKtVtuiIz4L1Gq1hYWFYKay2SyRGmwiPbZYLMbXR5STbYFisagb2nlOpDrtEeKMSG3F5UWkhkAvogqRSqRGRKZN6kQqkdpC9OSaKPEOYM9jj8l1AVFKJlKJ1Ci8NKirvt7fYBZEKpHaIDpRkhGprcAsKM/bt28vLS25NZaWlm7fvo1yuqPSMFZJxTAPjIsFWrj/lViyZTm3ACCfiniFCXz00Ue7d++enZ1VlWdnZ3fv3v273/0OhURqSFIteymrXInKZrb2MkEpZLkRqYhXyEClUlFhBUwrlYqanEgNSapYcs1XYjNAGZ1yPau6/wqRqhIWMoywemK6tbVFpEYlVRAqviE9kRqSyAA1gHX37t2aN4UkRGpIUsU+FhJQbfSX/pV8agCOwVE1fnjqhCL1Jz/5idafnXuKd1HKdil8hx++WyB71iqRZNTCIecGNE/15Kx5IZEa5qJT8a2vTz61eS7dORCpNnnilyn5rSBJpLrJ2W4JkaoA6RskUrebS3d5RKovng1H0JvUbs6alIR9k7qb7qga5lMmXFlZOXv27Ct0xGeBs2fP1l2dwt6kJlIlhhRKqgWI1KT2DNXLaQEi1WkPOkuqBYjUpPYM1ctpASLVaQ86S6oFiNTIPUM7UxTjPsLsTEGkRiaVnqc2+fTUnZyep0amMEwC+t3fjVrzEvqNKgx70XSI1Oa5dOdApEajMIw2kermrHkJkRqGvWg6RGrzXLpzIFKjURhGm0h1c9a8pMtJlW/ti9UnnijSW3/Nk9ZsDl1MKqdUXWoy4vsfYojUZjkLSB/nzhTPP/+8p6sxWShX7oVoBZEaQFqzUXHtTJHJZKwOJDUAVGVGIDyuQqpPLF8P2AfQ0zw1Kry42B8Sei75rzv6dy6pjvWk6Fi1tdHa/133i3XMconUqKRubW0hrJ6YhtmZonNJVZZDI6c+O6MIn+r0xGI3ChErciFSGyAVYW14Z4oOJVVDUkCmiXUWidTGGAydqpmdKTqVVL6/lHObCX7vr43vMFNFrxkca/NOPjU0mREUu3WeClApt0dypimFOJNFUmHjNG3fFCWWZ0ukRgAwtGp3k4qDfqwBIjU0fhEUu5RUuVOKMxQLsURqBABDq3YpqbEQ6ZcJvUkdGr+wimHepO7cOyo/0JqW084Ur8R9hNmZgkhtmlzKYFssQKRui5mpkKYtwEh97rnnms6HMiALtNYCQ0NDRGprTUy5x2IBIjUWM1ImLbcAkRrZxLQzRTHuI8zOFERqZFLpeWrYx6Sh9cI8TyVSI5NKv1GFJjCCYt3fqIhUIjUCT61TJVIjg1g3AfnUVvBKpNYFL7ICkUqkBkDD3nHGA18sDUjQuigilUgNoEt/nTlAtYmoUKUQqURqAGOhGApIHy4qVClEaiRS49qZwpR7fy+G5DoTXIfK1GBt/jj/v70j4/Z/6e0b56v9+AQCJw9ySsHWU8kzOzuP/BnwRGokUuPamcIgUnGaCiBpq/Nw5T6umOLkSbGQK+mEo8XLAAPwn6rFBcCQRbyJ1EigMmVc7A8pPZf8d8y9v8oQB4zRI/ZA4f6Qn6hqIcLSjSLRgkjv/MmnRsYUEiCsnpiG2ZnCIJ8qGAJP6E1SCDphVnAelqEC6+dHeojUBhEMnwxgbXhnCmNJ5dNK26lKaqOQirosuYtU7/zJp4Yn00OzmZ0pzCW17tp8JBEmneiSUc4IZQe7B7Nj7ekAulp7boxpiVQP/mIRdcw8FYb8RPyle/9Y0NQy6RBS5W2/CLWRWSJVgyyW0w4htY1cuosmUmNBU8uESHWT1qyE3qTWIGv+lN6kbhZKz/S0M0XcG1O8EmZnClPu/T2ZIWEXWYBI7aLONrqpRKrR3ddFlSdSu6izjW4qkWp093VR5YnUyJ1NO1MU4z5oZ4rIFIZJQM9Tm3+AquVAz1PDgBdZh36j0jiL5ZR+o4oMYt0ERGosaGqZhCL12LFjdbuHFNACRKoGWSyndUkdHBy02kiqXB4iXpJyvAqKdDQewLdRo2UhX852pSNSY0FTyyTppAoMGuRJJA/4bijn8yN9I+f9MiVSNchiOSVSGyP1vC+ntIo6FjBdmZhJqlg2ovzfU03E+RuxdwCSEwaphetWFVI9YuUSl56RkT7Xaio5ObFXbDE/Sz7VhVmQIK6dKdo8TxUjrMITrh3ly584hQwxiSNLwxECelhQD/FdKCAF5iz1nLF2Yo6xlkTUTq0SkRqEpUdcXDtTMFJ//OMfY5+0KYA8SSdn32LZm58oPs0mFdEVaRlrUi3Uf0TH5dOOPEWG4orgNcHiyKd64BgswsX+oOa55D/U6J88UiVwDCEngvxaUmBCh+dUi4FUmaGDaBr9g7n0jEVYPTENszNF8nwqH9mlBxOoOiVepPKENuMSMtTURn9QlEKWQpunYlIWJ8snUj1ZrCtscmeKBJLqnADY6DGk4OAChMi5lp/j5hysFU2PWLlvmtcdlUigbAhAd1R1iQxQaGZnioSQyof09v5hWNqXRXBFyKcGsNhwlCnzVMmGcJ3yW8a1MsScthzhg0oiUhvGMSCheaQGMRJ/nBjf2XURyqHS6B9AWzNRRGr8dJNPbYZIv7R1SR0YGEjC89T4eWpdjvQmtR9tDcvDvElNpEZGmnamaMvOFERqZFIpQVssQKS2xexUaGQLEKmRTUYJ2mIBIrUtZqdCI1uASI1sMkrQFgsQqW0xOxUa2QJEamSTUYK2WIBIbYvZqdDIFiBSI5uMErTFAkRqW8xOhUa2ACP16NGjodMpLx+Fe0cudM7NKbJ6JapCzTWHUrssEIVUTql8N+78yMi4K7+YBcob+zHnTNkZZoHwpDJOJabb1EwidZsMnfxiQpMaACr3tfCOvkCZEzZu/19SeyE015AjtEwFiXgSx2YTcu0UXCLy3C6GJenr6+EvQStMy5y3/9JKfo+bWsMopErK1NYyfmxyGCKgxKFyBZXVowpY431ckSdBaO0sFTVZJgpZElEph9BVH5mYQoZaIAqpAkhHUxmdNhiwTpSfIDfOtaOOtflypRTPwDOJKpTrSAWfaqwIe9fHUWU6MdECoUn12h+CNdibDMEN0/AKO1Nxw3mpqWllEtwnwiuJVLPLlpcRL4b+GGqB8KQ6NoNirbXv/bXRH8DwYoilQbk6cIPpMEpTcw3vjEWcWIhYZ842nU5qDe0hqjZYIAqptgcVozZCwoCAA0We2KkIuref8E7CZ68wERbFyH0ivJNwN6/Vh7rbeAtEJNX49lIDTLVAS0gVXtf321RrUb3bZ4GWkNq+5lDJHWsBIrVju7bDGkakdliHdmxzQpF68+bNEh1kgdZYYGVl5fr163WvsFCkrq2t3aWDLNAyC6ysrJTrHaFILZVKLaskZUwWuEukEgRmWIBINaOfqJZEKjFghgWIVDP6iWpJpBIDZliASDWjn6iWRCoxYIYFiFQz+olqSaQSA2ZYgEg1o5+olkQqMWCGBYhUM/qJakmkEgNmWIBINaOfqJZEKjFghgWIVDP6iWpJpBIDZliASDWjn6iWRCoxYIYFiFQz+olqSaQSA2ZYgEg1o5+olkQqMWCGBYhUM/qJakmkEgNmWIBINaOfqJZEKjFghgWIVDP6iWoZltQf/ehH5cCDdlAjmFpqgTCk7t271yJSW9oNlHldCxCpdU1EComwAJGaiG6gStS1AJFa10SkkAgLEKmJ6AaqRF0LEKl1TUQKibBAWFKPHj1aDjzoKVUi+rNzKxGGVPqPFJ3b/+a0jEg1p6+6u6ZEanf3vzmtJ1LN6avurimR2t39b07rw5JKv/ub06edWdMwpNIbKp3Z92a1ikg1q7+6t7ZEavf2vVktJ1LN6q/urS2R2r19b1bLiVSz+qt7a0ukdm/fm9VyItWs/ure2hKp3dv3ZrWcSDWrv7q3tteuXSvXO0L9RrW+vj42NpangyzQAguMjY2tr6/XA7UcitS6uZACWaDVFiBSW21hyj8eCxCp8diRcmm1BYjUVluY8o/HAkRqPHakXFptAUbqk08faXUxlD9ZoEkLEKlNGpCSb5MFiNRtMjQV06QFiNQmDUjJt8kCROo2GZqKadICRGqTBqTk22QBRurff//QNpVGxZAFGrUAI/Xzn/98o8kpHVlgmyzASN27d+82lUbFkAUatQCR2qjlKN32WoBI3V57U2mNWsBIUkul0uLiYrFYnOuI4+LFi6VSKXwPFi+tPXDwvR2ZC9aehQ74PHhoqXhprW7zzSO1VCoVi8Vr167duXNny/zjzp07q6urxWIxJKzFS2s7MheGZlbXap3Q/LXandE3PtwxdKEurOaRevHixRs3bpiPqKMFKysri4uLdf1KuVx+8PDS994oORKbfzI4ff2Bg+8FN988Uufm5jY3N83vHUcLNjc3i8VicFdBrLVnoTO8qdr+tdrmjqELwc03klS1kR0TnpubC+4qJLVjmqw2xNqzENx8IlU1VzvDRCqR2k7+wpdNpHY5qe+O3m/Zx/2j74YHJ5TmRL8VW6atJnWi37L6J0I1qx1K3T36c0pl77w7OhpzT5lD6ruj99/f339/LNdVnK3Gi6KbSWWcSkzRJHEG4uyzlvpUBurou/C3aQPE2WqsTBeT6g8qGwfhsEHmph+1pYrbkTMHW1EXyD7zzLO///7wI24rSRWIim/Bh96eLV3AGzhhT6C4ZWRDwQ3Ic8WYkRoOleluUhXoRN+o38gZtzYYmgUhxDrNmQHqb21N9Ituc6psoQ7LSItTy3aHW0iqBFSGtjiVzhpi5dUGimZIeyhqshkojNxwyKMuqew//Jr11t/c3Jy0T0CIWda+zHUtTib3qtBTaOUt1kUAmDs5kygHy1soQzo70p2nXr7neetI1fGUV6LTPsEN5K3lCZRWx9FwsEYXk8p9hrMruE0kgtiDqulFWKoJrtwSJFVGeeYpcgj8bhmp8roU1xm3iqyzqJZbgg1kKhgtTKTKWGyDlygU382kcicgxnIwNbv3Rzszy7uN6xEtetI9rgll8a2MqCgSqet9t4pUvSIInGy/qJpnA8UcBtNJC9Y1psg4xHd3k2pf9MKVAJacJiaST23UztTCdlrbN7PeEgcTobKI8M4zREdtbbWIVKwiVkIix+pfv4H89oip4QBlJ2PnMTQcKtb1pGL/JD7QIlKba7eb8+by80/dgaQWi8Xkv0slXBX79u8dGbO5uRmS1B2ZC5HepVJrooZl2UGhbSJ1rbbZgaQuLi6urKwEmdfAuNXV1YsXLwb/8A2xDxx8b3B61cAmBlV59OyHDx5aCm6+ee9SwTv/q6uryfesQZ0j4jY3N1dWVqK881/akbkw+saHkTyrKC1x32u1O4PT13dkLhQv1VmfYx6p5XK5VCq98847MzMz0+Yfr7766uzsbMilKeB1ipdKDx6cs/7lNeuff276Z8c3//eB7/2qLqblMv+PFAMDA8GOl2LJAm23APuNikhtezdQBepawCb16tWrdVVJgSzQLgtcvXqVkTo4OPjOO++0qxJULlmgrgVmZ2cZqZlMZnJysq42KZAF2mWBycnJoaEhK5vNZjKZ5eXldtWDyiULBFhgeXk5k8n8gVIrn89nMplCoRCgTVFkgXZZoFAoDA0N/YFSRmo2mx0cHCwUCuRZ29UfVK7bAsvLy4VCYWBgIJfLMVKHh4dzuVwmkxkcHBwaGpqYmHj77bevXLniTkkSssA2WODKlSuzs7MTExNDQ0ODg4OZTCafzw8PDzOfmsvlYLY6ODi4d+/eJ5544nF+7Nmz59tex7cCj//wPx4LPL7Z6PHvdNSzQHjTBnaRHql2dSAU3/LiSJft2bPn8ccf/w4/BgYGANNsNpvL5YaHh/8f+91ouRL9ehQAAAAASUVORK5CYII=;" parent="m1atIyZ4gX1CUayxEhNT-13" vertex="1">
          <mxGeometry x="80.50333333333356" y="121" width="227" height="299" as="geometry" />
        </mxCell>
        <mxCell id="xqy69tr8KV9q_1hySrRs-2" value="cboFormato" style="text;html=1;fillColor=none;align=right;verticalAlign=middle;whiteSpace=wrap;rounded=0;strokeColor=none;fontColor=#0000CC;fontStyle=1;fontSize=10;spacingRight=1.9685;" parent="m1atIyZ4gX1CUayxEhNT-13" vertex="1">
          <mxGeometry x="194.5" y="246" width="77" height="23" as="geometry" />
        </mxCell>
        <mxCell id="xqy69tr8KV9q_1hySrRs-3" value="" style="rounded=1;orthogonalLoop=1;jettySize=auto;endArrow=oval;endFill=1;shadow=0;fixDash=0;backgroundOutline=0;labelBorderColor=none;verticalAlign=middle;strokeWidth=1;strokeColor=#B5739D;startArrow=oval;startFill=1;endSize=3;startSize=3;entryX=0;entryY=0.5;entryDx=0;entryDy=0;exitX=1;exitY=0.5;exitDx=0;exitDy=0;" parent="m1atIyZ4gX1CUayxEhNT-13" source="xqy69tr8KV9q_1hySrRs-2" target="xqy69tr8KV9q_1hySrRs-4" edge="1">
          <mxGeometry relative="1" as="geometry">
            <mxPoint x="337.5" y="229" as="sourcePoint" />
            <mxPoint x="440.4999999999998" y="65.75" as="targetPoint" />
          </mxGeometry>
        </mxCell>
        <mxCell id="xqy69tr8KV9q_1hySrRs-4" value="intFormato" style="text;html=1;fillColor=none;align=left;verticalAlign=middle;whiteSpace=wrap;rounded=0;strokeColor=none;fontColor=#FF0000;fontStyle=1;fontSize=11;spacingLeft=2;" parent="m1atIyZ4gX1CUayxEhNT-13" vertex="1">
          <mxGeometry x="363.5" y="252" width="122" height="23" as="geometry" />
        </mxCell>
        <mxCell id="xqy69tr8KV9q_1hySrRs-5" value="cboColor" style="text;html=1;fillColor=none;align=right;verticalAlign=middle;whiteSpace=wrap;rounded=0;strokeColor=none;fontColor=#0000CC;fontStyle=1;fontSize=10;spacingRight=1.9685;" parent="m1atIyZ4gX1CUayxEhNT-13" vertex="1">
          <mxGeometry x="194.5" y="221" width="77" height="23" as="geometry" />
        </mxCell>
        <mxCell id="xqy69tr8KV9q_1hySrRs-6" value="" style="rounded=1;orthogonalLoop=1;jettySize=auto;endArrow=oval;endFill=1;shadow=0;fixDash=0;backgroundOutline=0;labelBorderColor=none;verticalAlign=middle;strokeWidth=1;strokeColor=#B5739D;startArrow=oval;startFill=1;endSize=3;startSize=3;entryX=0;entryY=0.5;entryDx=0;entryDy=0;exitX=1;exitY=0.5;exitDx=0;exitDy=0;" parent="m1atIyZ4gX1CUayxEhNT-13" source="xqy69tr8KV9q_1hySrRs-5" target="xqy69tr8KV9q_1hySrRs-7" edge="1">
          <mxGeometry relative="1" as="geometry">
            <mxPoint x="337.5" y="204" as="sourcePoint" />
            <mxPoint x="440.4999999999998" y="40.75" as="targetPoint" />
          </mxGeometry>
        </mxCell>
        <mxCell id="xqy69tr8KV9q_1hySrRs-7" value="intColor" style="text;html=1;fillColor=none;align=left;verticalAlign=middle;whiteSpace=wrap;rounded=0;strokeColor=none;fontColor=#FF0000;fontStyle=1;fontSize=11;spacingLeft=2;" parent="m1atIyZ4gX1CUayxEhNT-13" vertex="1">
          <mxGeometry x="363.5" y="219" width="122" height="23" as="geometry" />
        </mxCell>
        <mxCell id="xqy69tr8KV9q_1hySrRs-8" value="cboTipo" style="text;html=1;fillColor=none;align=right;verticalAlign=middle;whiteSpace=wrap;rounded=0;strokeColor=none;fontColor=#0000CC;fontStyle=1;fontSize=10;spacingRight=1.9685;" parent="m1atIyZ4gX1CUayxEhNT-13" vertex="1">
          <mxGeometry x="194.5" y="196" width="77" height="23" as="geometry" />
        </mxCell>
        <mxCell id="xqy69tr8KV9q_1hySrRs-9" value="" style="rounded=1;orthogonalLoop=1;jettySize=auto;endArrow=oval;endFill=1;shadow=0;fixDash=0;backgroundOutline=0;labelBorderColor=none;verticalAlign=middle;strokeWidth=1;strokeColor=#B5739D;startArrow=oval;startFill=1;endSize=3;startSize=3;entryX=0;entryY=0.5;entryDx=0;entryDy=0;exitX=1;exitY=0.5;exitDx=0;exitDy=0;" parent="m1atIyZ4gX1CUayxEhNT-13" source="xqy69tr8KV9q_1hySrRs-8" target="xqy69tr8KV9q_1hySrRs-10" edge="1">
          <mxGeometry relative="1" as="geometry">
            <mxPoint x="337.5" y="179" as="sourcePoint" />
            <mxPoint x="440.4999999999998" y="15.75" as="targetPoint" />
          </mxGeometry>
        </mxCell>
        <mxCell id="xqy69tr8KV9q_1hySrRs-10" value="intTipo" style="text;html=1;fillColor=none;align=left;verticalAlign=middle;whiteSpace=wrap;rounded=0;strokeColor=none;fontColor=#FF0000;fontStyle=1;fontSize=11;spacingLeft=2;" parent="m1atIyZ4gX1CUayxEhNT-13" vertex="1">
          <mxGeometry x="363.5" y="187" width="122" height="23" as="geometry" />
        </mxCell>
        <mxCell id="xqy69tr8KV9q_1hySrRs-11" value="txtId" style="text;html=1;fillColor=none;align=right;verticalAlign=middle;whiteSpace=wrap;rounded=0;strokeColor=none;fontColor=#0000CC;fontStyle=1;fontSize=10;spacingRight=1.9685;" parent="m1atIyZ4gX1CUayxEhNT-13" vertex="1">
          <mxGeometry x="194.5" y="171" width="77" height="23" as="geometry" />
        </mxCell>
        <mxCell id="xqy69tr8KV9q_1hySrRs-12" value="" style="rounded=1;orthogonalLoop=1;jettySize=auto;endArrow=oval;endFill=1;shadow=0;fixDash=0;backgroundOutline=0;labelBorderColor=none;verticalAlign=middle;strokeWidth=1;strokeColor=#B5739D;startArrow=oval;startFill=1;endSize=3;startSize=3;entryX=0;entryY=0.5;entryDx=0;entryDy=0;exitX=1;exitY=0.5;exitDx=0;exitDy=0;" parent="m1atIyZ4gX1CUayxEhNT-13" source="xqy69tr8KV9q_1hySrRs-11" target="xqy69tr8KV9q_1hySrRs-13" edge="1">
          <mxGeometry relative="1" as="geometry">
            <mxPoint x="337.5" y="154" as="sourcePoint" />
            <mxPoint x="440.4999999999998" y="-9.25" as="targetPoint" />
          </mxGeometry>
        </mxCell>
        <mxCell id="xqy69tr8KV9q_1hySrRs-13" value="strCaravana" style="text;html=1;fillColor=none;align=left;verticalAlign=middle;whiteSpace=wrap;rounded=0;strokeColor=none;fontColor=#FF0000;fontStyle=1;fontSize=11;spacingLeft=2;" parent="m1atIyZ4gX1CUayxEhNT-13" vertex="1">
          <mxGeometry x="363.5" y="151" width="122" height="23" as="geometry" />
        </mxCell>
        <mxCell id="1" value="Referencias" parent="0" />
        <mxCell id="RW2d4hUB_fe7PCY3z_Wn-29" value="&lt;u&gt;Ingreso de Caravanas&lt;/u&gt;" style="text;html=1;strokeColor=none;fillColor=none;align=center;verticalAlign=middle;whiteSpace=wrap;rounded=0;fontSize=28;fontColor=#000000;fontStyle=1" parent="1" vertex="1">
          <mxGeometry x="74" y="30" width="392" height="54" as="geometry" />
        </mxCell>
        <mxCell id="TpqVqiyU344UTFMwb6-c-14" value="intTecnologia" style="text;html=1;fillColor=none;align=left;verticalAlign=middle;whiteSpace=wrap;rounded=0;strokeColor=none;fontColor=#FF0000;fontStyle=1;fontSize=11;spacingLeft=2;" parent="1" vertex="1">
          <mxGeometry x="363.5" y="283" width="122" height="23" as="geometry" />
        </mxCell>
        <mxCell id="TpqVqiyU344UTFMwb6-c-15" value="strComentario" style="text;html=1;fillColor=none;align=left;verticalAlign=middle;whiteSpace=wrap;rounded=0;strokeColor=none;fontColor=#FF0000;fontStyle=1;fontSize=11;spacingLeft=2;" parent="1" vertex="1">
          <mxGeometry x="360.5" y="354" width="83" height="23" as="geometry" />
        </mxCell>
        <mxCell id="TpqVqiyU344UTFMwb6-c-25" value="pteComentario" style="text;html=1;fillColor=none;align=center;verticalAlign=middle;whiteSpace=wrap;rounded=0;strokeColor=none;fontColor=#0000CC;fontStyle=1;fontSize=10;" parent="1" vertex="1">
          <mxGeometry x="149.5" y="332" width="79" height="23" as="geometry" />
        </mxCell>
        <mxCell id="TpqVqiyU344UTFMwb6-c-26" value="" style="rounded=1;orthogonalLoop=1;jettySize=auto;endArrow=oval;endFill=1;shadow=0;fixDash=0;backgroundOutline=0;labelBorderColor=none;verticalAlign=middle;strokeWidth=1;strokeColor=#B5739D;startArrow=oval;startFill=1;exitX=1;exitY=0.5;exitDx=0;exitDy=0;endSize=3;startSize=3;entryX=0;entryY=0.5;entryDx=0;entryDy=0;" parent="1" source="TpqVqiyU344UTFMwb6-c-25" target="TpqVqiyU344UTFMwb6-c-15" edge="1">
          <mxGeometry relative="1" as="geometry">
            <mxPoint x="100.5" y="156.75" as="sourcePoint" />
            <mxPoint x="410.5" y="49.25" as="targetPoint" />
          </mxGeometry>
        </mxCell>
        <mxCell id="TpqVqiyU344UTFMwb6-c-31" value="cboTecnologia" style="text;html=1;fillColor=none;align=right;verticalAlign=middle;whiteSpace=wrap;rounded=0;strokeColor=none;fontColor=#0000CC;fontStyle=1;fontSize=10;spacingRight=1.9685;" parent="1" vertex="1">
          <mxGeometry x="194.5" y="271" width="77" height="23" as="geometry" />
        </mxCell>
        <mxCell id="TpqVqiyU344UTFMwb6-c-32" value="" style="rounded=1;orthogonalLoop=1;jettySize=auto;endArrow=oval;endFill=1;shadow=0;fixDash=0;backgroundOutline=0;labelBorderColor=none;verticalAlign=middle;strokeWidth=1;strokeColor=#B5739D;startArrow=oval;startFill=1;endSize=3;startSize=3;entryX=0;entryY=0.5;entryDx=0;entryDy=0;exitX=1;exitY=0.5;exitDx=0;exitDy=0;" parent="1" source="TpqVqiyU344UTFMwb6-c-31" target="TpqVqiyU344UTFMwb6-c-14" edge="1">
          <mxGeometry relative="1" as="geometry">
            <mxPoint x="337.5" y="254" as="sourcePoint" />
            <mxPoint x="440.4999999999998" y="90.75" as="targetPoint" />
          </mxGeometry>
        </mxCell>
        <mxCell id="TpqVqiyU344UTFMwb6-c-37" value="dlgIngresoCaravanas" style="text;html=1;fillColor=none;align=left;verticalAlign=middle;whiteSpace=wrap;rounded=0;strokeColor=none;fontColor=#000000;fontStyle=1;fontSize=10;" parent="1" vertex="1">
          <mxGeometry x="79.5" y="100" width="190" height="23" as="geometry" />
        </mxCell>
        <mxCell id="TpqVqiyU344UTFMwb6-c-40" value="btnCancel" style="text;html=1;fillColor=none;align=center;verticalAlign=middle;whiteSpace=wrap;rounded=0;strokeColor=none;fontColor=#009900;fontStyle=1;fontSize=10;" parent="1" vertex="1">
          <mxGeometry x="134.5" y="371" width="77" height="23" as="geometry" />
        </mxCell>
        <mxCell id="TpqVqiyU344UTFMwb6-c-41" value="btnOk" style="text;html=1;fillColor=none;align=center;verticalAlign=middle;whiteSpace=wrap;rounded=0;strokeColor=none;fontColor=#009900;fontStyle=1;fontSize=10;" parent="1" vertex="1">
          <mxGeometry x="220" y="371" width="77" height="23" as="geometry" />
        </mxCell>
      </root>
    </mxGraphModel>
  </diagram>
</mxfile>
